<?xml version="1.0" standalone="no"?>
<!DOCTYPE svg PUBLIC "-//W3C//DTD SVG 20010904//EN"
 "http://www.w3.org/TR/2001/REC-SVG-20010904/DTD/svg10.dtd">
<svg version="1.0" xmlns="http://www.w3.org/2000/svg"
 width="1200.000000pt" height="1200.000000pt" viewBox="0 0 1200.000000 1200.000000"
 preserveAspectRatio="xMidYMid meet">

<g transform="translate(0.000000,1200.000000) scale(0.100000,-0.100000)"
fill="#000000" stroke="none">
<path d="M4150 6000 c0 -971 2 -1100 15 -1100 13 0 15 129 15 1100 0 971 -2
1100 -15 1100 -13 0 -15 -129 -15 -1100z"/>
<path d="M5026 6574 c-14 -13 -16 -53 -18 -262 -6 -559 -3 -885 8 -900 8 -11
35 -17 96 -20 82 -4 85 -4 106 22 19 25 21 39 20 214 0 103 0 204 1 225 l1 37
219 0 c163 0 221 3 228 13 14 17 23 177 12 199 -9 16 -29 18 -234 18 l-225 0
0 120 0 120 229 0 c199 0 230 2 235 16 11 29 7 189 -6 202 -9 9 -97 12 -334
12 -280 0 -325 -2 -338 -16z"/>
<path d="M5935 6577 c-17 -13 -18 -45 -23 -590 l-4 -576 43 -11 c66 -18 487
-9 499 10 14 23 20 101 12 160 l-7 55 -157 3 -158 3 6 458 c4 333 3 464 -5
480 -11 19 -20 21 -99 21 -58 0 -94 -5 -107 -13z"/>
<path d="M6647 6578 c-16 -12 -18 -54 -24 -583 -5 -480 -4 -572 8 -581 22 -17
195 -26 207 -11 14 17 27 1147 13 1167 -14 21 -178 27 -204 8z"/>
<path d="M7032 6578 c-7 -7 -12 -18 -12 -25 0 -7 42 -93 93 -190 51 -98 112
-222 136 -276 l44 -97 -38 -85 c-21 -47 -58 -120 -82 -163 -81 -140 -154 -294
-151 -315 3 -21 9 -22 102 -25 76 -2 104 1 122 13 22 14 61 89 150 283 l28 64
15 -34 c43 -96 143 -294 158 -310 14 -15 33 -18 125 -18 90 0 110 3 115 16 3
9 -20 64 -56 132 -34 64 -98 190 -143 280 l-81 162 33 73 c18 39 80 167 138
284 89 179 103 215 92 228 -10 12 -34 15 -111 15 -87 0 -102 -3 -120 -21 -11
-11 -51 -84 -89 -160 -37 -77 -71 -140 -75 -140 -3 0 -39 68 -80 150 -41 84
-83 154 -94 160 -28 15 -204 14 -219 -1z"/>
<path d="M8027 6578 c-16 -12 -18 -54 -24 -582 -6 -544 -5 -570 12 -583 20
-14 200 -19 208 -5 11 16 18 1147 8 1162 -14 21 -178 27 -204 8z"/>
<path d="M8469 6574 c-19 -24 -27 -1153 -8 -1165 8 -5 53 -9 100 -9 124 0 118
-13 121 266 l3 229 225 5 225 5 8 85 c13 141 34 129 -229 132 l-225 3 -2 118
c-2 107 0 118 17 123 10 4 109 5 220 3 110 -2 206 -1 212 3 14 10 25 177 13
200 -9 17 -35 18 -338 18 -286 0 -330 -2 -342 -16z"/>
<path d="M9339 6568 c-24 -44 6 -436 41 -543 35 -107 121 -192 218 -217 22 -6
22 -8 22 -191 0 -155 3 -188 16 -201 20 -21 186 -23 203 -3 6 9 12 82 13 197
l3 183 60 21 c89 31 172 116 210 216 27 73 28 82 33 303 3 172 1 231 -8 242
-17 21 -192 22 -209 1 -8 -9 -14 -74 -17 -183 -6 -249 -12 -280 -69 -333 -23
-21 -38 -25 -104 -28 -72 -4 -79 -2 -109 23 -18 15 -37 35 -42 45 -19 35 -31
158 -31 308 -1 121 -4 155 -16 167 -11 11 -38 15 -108 15 -87 0 -95 -2 -106
-22z"/>
<path d="M2700 6489 c-107 -21 -238 -114 -289 -205 l-23 -41 -36 18 c-53 28
-98 33 -157 20 -107 -24 -185 -119 -185 -225 l0 -51 -56 -24 c-217 -94 -269
-380 -99 -545 26 -26 70 -55 103 -68 l57 -23 605 0 605 0 57 23 c73 30 148
109 178 189 43 115 24 257 -48 351 -45 59 -66 77 -124 104 -44 21 -48 26 -53
68 -15 122 -54 207 -129 285 -103 105 -259 153 -406 124z m191 -518 c17 -20
19 -40 19 -158 0 -129 -1 -135 -25 -158 l-24 -25 -224 0 c-288 0 -271 -10
-275 163 -4 140 9 192 50 200 12 3 121 4 241 3 217 -1 219 -1 238 -25z"/>
<path d="M2580 5815 c0 -41 2 -75 5 -75 3 0 30 16 60 36 l55 37 -54 38 c-30
22 -57 39 -60 39 -3 0 -6 -34 -6 -75z"/>
</g>
</svg>
